HIERARCHY
ROOT Hips
{
	OFFSET 0.00000 0.00000 0.00000
	CHANNELS 6 Xposition Yposition Zposition Zrotation Yrotation Xrotation 
	JOINT LHipJoint
	{
		OFFSET 0 0 0
		CHANNELS 3 Zrotation Yrotation Xrotation
		JOINT LeftHip
		{
			OFFSET 1.62964 -1.40469 0.78906
			CHANNELS 3 Zrotation Yrotation Xrotation
			JOINT LeftKnee
			{
				OFFSET 2.29640 -6.30932 0.00000
				CHANNELS 3 Zrotation Yrotation Xrotation
				JOINT LeftAnkle
				{
					OFFSET 2.29451 -6.30412 0.00000
					CHANNELS 3 Zrotation Yrotation Xrotation
					JOINT LeftToe
					{
						OFFSET 0.03611 -0.09921 1.56387
						CHANNELS 3 Zrotation Yrotation Xrotation
						End Site
						{
							OFFSET 0.00000 -0.00000 0.80291
						}
					}
				}
			}
		}
	}
	JOINT RHipJoint
	{
		OFFSET 0 0 0
		CHANNELS 3 Zrotation Yrotation Xrotation
		JOINT RightHip
		{
			OFFSET -1.73712 -1.40469 0.78906
			CHANNELS 3 Zrotation Yrotation Xrotation
			JOINT RightKnee
			{
				OFFSET -2.28137 -6.26801 0.00000
				CHANNELS 3 Zrotation Yrotation Xrotation
				JOINT RightAnkle
				{
					OFFSET -2.28681 -6.28298 0.00000
					CHANNELS 3 Zrotation Yrotation Xrotation
					JOINT RightToe
					{
						OFFSET -0.15927 -0.43759 1.61103
						CHANNELS 3 Zrotation Yrotation Xrotation
						End Site
						{
							OFFSET -0.00000 -0.00000 0.84630
						}
					}
				}
			}
		}
	}
	JOINT lowerback
	{
		OFFSET 0 0 0
		CHANNELS 3 Zrotation Yrotation Xrotation
		JOINT Chest
		{
			OFFSET -0.04227 2.04338 -0.00225
			CHANNELS 3 Zrotation Yrotation Xrotation
			JOINT Chest2
			{
				OFFSET -0.02148 2.04482 -0.04273
				CHANNELS 3 Zrotation Yrotation Xrotation
				JOINT lowerneck
				{
					OFFSET 0 0 0
					CHANNELS 3 Zrotation Yrotation Xrotation
					JOINT Neck
					{
						OFFSET 0.09180 1.44629 0.19359
						CHANNELS 3 Zrotation Yrotation Xrotation
						JOINT Head
						{
							OFFSET 0.00887 1.40645 0.14750
							CHANNELS 3 Zrotation Yrotation Xrotation
							End Site
							{
								OFFSET -0.00669 1.50671 0.03707
							}
						}
					}
				}
				JOINT LeftCollar
				{
					OFFSET 0 0 0
					CHANNELS 3 Zrotation Yrotation Xrotation
					JOINT LeftShoulder
					{
						OFFSET 2.17674 1.86763 -0.06520
CHANNELS 3 Zrotation Xrotation Yrotation
						JOINT LeftElbow
						{
OFFSET 0 -4.657760 0.000000
CHANNELS 3 Zrotation Xrotation Yrotation
							JOINT LeftWrist
							{
OFFSET 0 -3.555390 0.000000
CHANNELS 3 Zrotation Xrotation Yrotation
								JOINT lhand
								{
									OFFSET 0 0 0
CHANNELS 3 Zrotation Xrotation Yrotation
									JOINT LFingers
									{
OFFSET 0 -0.707260 0.000000
CHANNELS 3 Zrotation Xrotation Yrotation
										End Site
										{
OFFSET 0 -0.570220 0.000000
										}
									}
								}
								JOINT LThumb
								{
OFFSET 0 0.000000 0.000000
CHANNELS 3 Zrotation Xrotation Yrotation
									End Site
									{
OFFSET 0 -0.578920 0.578920
									}
								}
							}
						}
					}
				}
				JOINT RightCollar
				{
					OFFSET 0 0 0
					CHANNELS 3 Zrotation Yrotation Xrotation
					JOINT RightShoulder
					{
						OFFSET -2.80694 1.55459 -0.32496
CHANNELS 3 Zrotation Xrotation Yrotation
						JOINT RightElbow
						{
OFFSET 0 -4.719250 -0.000000
CHANNELS 3 Zrotation Xrotation Yrotation
							JOINT RightWrist
							{
OFFSET 0 -3.569900 0.000000
CHANNELS 3 Zrotation Xrotation Yrotation
								JOINT rhand
								{
									OFFSET 0 0 0
CHANNELS 3 Zrotation Xrotation Yrotation
									JOINT RFingers
									{
OFFSET 0 -0.507760 0.000000
CHANNELS 3 Zrotation Xrotation Yrotation
										End Site
										{
OFFSET 0 -0.409370 0.000000
										}
									}
								}
								JOINT RThumb
								{
OFFSET 0 0.000000 0.000000
CHANNELS 3 Zrotation Xrotation Yrotation
									End Site
									{
OFFSET 0 -0.415620 0.415620
									}
								}
							}
						}
					}
				}
			}
		}
	}
}
MOTION
Frames: 12
Frame Time: 0.008333333333333333
16.957100 18.002300 20.595400 173.827000 -2.004700 -153.858000 0.000000 0.000000 0.000000 -25.145700 -17.179200 -19.278800 0.292800 3.479800 9.617600 0.041200 -6.219700 -5.385700 0.025400 -1.028700 -2.827800 0.000000 0.000000 0.000000 15.676000 9.454400 -20.101400 -0.106700 -2.106100 5.799000 -0.971400 7.340700 -17.611000 -0.000100 -0.075300 0.206800 -10.158900 -2.856500 -32.063900 -0.402100 -0.619100 -0.624400 4.687800 -1.302700 16.046700 -0.632600 -0.394200 -4.193500 3.044000 -1.238600 11.911200 1.069300 -0.647200 4.737000 -0.000000 0.000000 0.000000 4.505900 1.275200 -21.328600 12.120700 -19.985500 2.143400 22.022500 -0.739400 12.196700 0.000000 0.000000 0.000000 -7.125000 0.000000 0.000000 -3.612300 16.871700 -2.413200 -0.000000 0.000000 0.000000 1.204000 6.365400 4.340000 -17.899100 -28.027800 -4.501700 -10.088000 6.003600 53.304800 0.000000 0.000000 0.000000 7.125000 0.000000 -0.000000 68.757100 75.090600 -53.785000
16.955658 18.001028 20.592432 173.877037 -1.947455 -153.847823 0.000000 0.000000 0.000000 -25.106773 -17.107792 -19.302207 0.291952 3.474881 9.603691 0.045440 -6.009970 -5.370774 0.041938 -1.315606 -3.617787 0.000000 0.000000 0.000000 15.687110 9.722987 -20.098771 -0.112043 -2.158342 5.943428 -0.961986 7.236047 -17.520934 -0.008920 -0.572699 1.573820 -10.091478 -2.822831 -32.132255 -0.403542 -0.591961 -0.617107 4.660577 -1.288113 16.082235 -0.617335 -0.365026 -4.095886 3.030261 -1.178556 11.687901 1.063787 -0.614634 4.633195 0.000000 0.000000 0.000000 4.522522 1.244924 -21.434101 12.108742 -19.967606 2.139329 22.211283 -0.758058 12.189746 0.000000 0.000000 0.000000 -7.125000 0.000000 0.000000 -3.480678 16.861099 -2.325763 0.000000 0.000000 0.000000 1.244453 6.298995 4.220421 -17.883835 -28.008209 -4.494576 -9.396221 5.578712 52.896110 0.000000 0.000000 0.000000 7.125000 0.000000 0.000000 67.604220 74.710745 -52.308747
16.953590 18.001078 20.588280 173.914543 -1.878514 -153.915616 0.000000 0.000000 0.000000 -25.101749 -17.057755 -19.200584 0.289224 3.458476 9.557829 0.050864 -5.832193 -5.406319 0.047197 -1.401460 -3.854117 0.000000 0.000000 0.000000 15.711795 9.764417 -20.014413 -0.112652 -2.164150 5.959484 -0.944776 7.274594 -17.366821 -0.017949 -0.855681 2.351889 -10.031226 -2.804269 -32.137608 -0.395446 -0.580626 -0.575423 4.643378 -1.279791 16.134616 -0.655256 -0.302924 -4.138966 3.038869 -1.076533 11.564918 1.078464 -0.561322 4.594899 0.000000 0.000000 0.000000 4.476769 1.193762 -21.385542 12.118504 -19.982222 2.142638 22.240575 -0.597733 12.031794 0.000000 0.000000 0.000000 -7.125000 0.000000 0.000000 -3.453758 17.027323 -2.295202 0.000000 0.000000 0.000000 1.229005 6.176202 4.174426 -17.846362 -27.960007 -4.477010 -9.054402 5.318396 52.416064 0.000000 0.000000 0.000000 7.125000 0.000000 0.000000 66.103468 74.428422 -50.637221
16.952800 18.000220 20.586809 173.949314 -1.841471 -153.956341 0.000000 0.000000 0.000000 -25.078708 -17.005308 -19.169367 0.288916 3.456653 9.552724 0.052029 -5.790157 -5.412442 0.043901 -1.351137 -3.715520 0.000000 0.000000 0.000000 15.744232 9.787406 -19.967459 -0.112772 -2.164940 5.961731 -0.936367 7.273422 -17.290164 -0.019186 -0.893169 2.454962 -9.989247 -2.779207 -32.126600 -0.402522 -0.561418 -0.567705 4.622054 -1.267776 16.136686 -0.721492 -0.197716 -4.134324 3.124574 -0.924750 11.432369 1.126717 -0.482366 4.543468 0.000000 0.000000 0.000000 4.480535 1.172385 -21.422497 12.123918 -19.990327 2.144454 22.242464 -0.518626 11.910445 0.000000 0.000000 0.000000 -7.125000 0.000000 0.000000 -3.447511 17.156920 -2.281298 0.000000 0.000000 0.000000 1.245060 6.146304 4.158040 -17.835663 -27.946269 -4.471968 -9.048501 5.265103 52.344300 0.000000 0.000000 0.000000 7.125000 0.000000 0.000000 65.853225 74.403964 -50.382462
16.951309 17.999832 20.584664 173.989578 -1.828134 -154.026987 0.000000 0.000000 0.000000 -25.050187 -16.986377 -19.079465 0.287991 3.451267 9.537740 0.052909 -5.807455 -5.441655 0.033631 -1.174074 -3.228071 0.000000 0.000000 0.000000 15.805196 9.668885 -19.888967 -0.110254 -2.140222 5.893405 -0.931783 7.339184 -17.252429 -0.014244 -0.761897 2.093903 -9.931801 -2.743184 -32.087063 -0.414560 -0.535028 -0.560739 4.590810 -1.250188 16.124425 -0.814200 -0.097131 -4.089351 3.243262 -0.781803 11.288693 1.190079 -0.408217 4.480491 0.000000 0.000000 0.000000 4.511230 1.164021 -21.538870 12.129396 -19.998446 2.146305 22.257901 -0.560024 11.850760 0.000000 0.000000 0.000000 -7.125000 0.000000 0.000000 -3.434359 17.219340 -2.267881 0.000000 0.000000 0.000000 1.264956 6.184751 4.189707 -17.853720 -27.969500 -4.480409 -9.229401 5.351984 52.478919 0.000000 0.000000 0.000000 7.125000 0.000000 0.000000 66.221960 74.516764 -50.839151
16.949841 18.000091 20.581128 174.036222 -1.821459 -154.114105 0.000000 0.000000 0.000000 -25.017023 -16.989864 -18.939431 0.285788 3.438183 9.501240 0.053669 -5.877121 -5.495768 0.020007 -0.900243 -2.474513 0.000000 0.000000 0.000000 15.900065 9.418741 -19.786473 -0.104918 -2.088346 5.749891 -0.929517 7.497646 -17.241528 -0.007373 -0.533204 1.465092 -9.870914 -2.713810 -32.044037 -0.410501 -0.517540 -0.540466 4.572259 -1.236694 16.128704 -0.880524 -0.084184 -4.054038 3.301333 -0.762286 11.242161 1.222240 -0.398589 4.457011 0.000000 0.000000 0.000000 4.521059 1.147106 -21.637688 12.142047 -20.017283 2.150639 22.229129 -0.626768 11.807479 0.000000 0.000000 0.000000 -7.125000 0.000000 0.000000 -3.452726 17.268438 -2.276269 0.000000 0.000000 0.000000 1.256715 6.226214 4.265596 -17.882415 -28.006366 -4.493877 -9.408036 5.446472 52.418100 0.000000 0.000000 0.000000 7.125000 0.000000 0.000000 65.922926 74.562114 -50.621523
16.952500 17.998880 20.580626 174.080035 -1.815818 -154.092105 0.000000 0.000000 0.000000 -24.954803 -16.941431 -18.989974 0.286585 3.442819 9.514015 0.048182 -6.096427 -5.482765 0.009839 -0.640911 -1.761329 0.000000 0.000000 0.000000 15.996985 9.318644 -19.794915 -0.101509 -2.055009 5.657627 -0.939878 7.565404 -17.340220 -0.001467 -0.242000 0.664831 -9.872588 -2.715053 -32.067066 -0.381939 -0.522044 -0.549437 4.602465 -1.240003 16.129373 -0.812024 -0.246810 -4.034784 3.213740 -1.003664 11.471312 1.168945 -0.524846 4.541310 0.000000 0.000000 0.000000 4.500191 1.122898 -21.645050 12.152950 -20.033684 2.154421 22.065440 -0.591797 11.748994 0.000000 0.000000 0.000000 -7.125000 0.000000 0.000000 -3.564746 17.346288 -2.344382 0.000000 0.000000 0.000000 1.238833 6.242706 4.321838 -17.902248 -28.031827 -4.503237 -9.408787 5.397419 52.015742 0.000000 0.000000 0.000000 7.125000 0.000000 0.000000 64.537887 74.425260 -49.226440
16.952500 17.999643 20.577997 174.099541 -1.787238 -154.150623 0.000000 0.000000 0.000000 -24.963453 -16.905303 -18.910170 0.285482 3.436288 9.495951 0.048013 -6.147481 -5.504476 0.012129 -0.710030 -1.951383 0.000000 0.000000 0.000000 16.027516 9.357401 -19.704001 -0.101594 -2.055094 5.657881 -0.956925 7.529022 -17.491857 -0.000195 -0.070434 0.193553 -9.860969 -2.696396 -32.050443 -0.374646 -0.500418 -0.533493 4.614593 -1.229487 16.138702 -0.590845 -0.637012 -4.030798 3.006130 -1.600458 12.121280 1.029436 -0.835837 4.788695 0.000000 0.000000 0.000000 4.458889 1.066331 -21.573642 12.122758 -19.988481 2.144074 21.940264 -0.478663 11.779610 0.000000 0.000000 0.000000 -7.125000 0.000000 0.000000 -3.653371 17.325086 -2.404596 0.000000 0.000000 0.000000 1.230522 6.221673 4.270444 -17.895039 -28.022498 -4.499760 -8.987885 5.076505 52.159915 0.000000 0.000000 0.000000 7.125000 0.000000 0.000000 65.256635 74.318487 -49.752080
16.951715 17.998680 20.576388 174.121401 -1.752694 -154.139307 0.000000 0.000000 0.000000 -24.939462 -16.885024 -18.922874 0.285635 3.437291 9.498680 0.047137 -6.155459 -5.488524 0.006808 -0.524218 -1.440440 0.000000 0.000000 0.000000 16.043374 9.365557 -19.732901 -0.102620 -2.065693 5.687246 -0.962202 7.582088 -17.542667 -0.000022 0.008467 -0.023266 -9.829342 -2.675933 -32.094866 -0.377160 -0.480832 -0.531437 4.602396 -1.219990 16.158231 -0.810398 -0.433711 -3.975418 3.213360 -1.291305 11.748862 1.154743 -0.675416 4.638188 0.000000 0.000000 0.000000 4.447090 0.996739 -21.555667 12.074128 -19.915659 2.127450 21.991710 -0.443444 11.815718 0.000000 0.000000 0.000000 -7.125000 0.000000 0.000000 -3.618806 17.281757 -2.385168 0.000000 0.000000 0.000000 1.235236 6.174198 4.204064 -17.870725 -27.991277 -4.488358 -9.107286 5.174512 51.780655 0.000000 0.000000 0.000000 7.125000 0.000000 0.000000 63.917348 74.225994 -48.457589
16.949792 17.997957 20.573975 174.142185 -1.723237 -154.148287 0.000000 0.000000 0.000000 -24.922513 -16.906458 -18.893833 0.285447 3.436181 9.495624 0.050760 -6.025184 -5.504200 0.007072 -0.540197 -1.484345 0.000000 0.000000 0.000000 16.051086 9.353460 -19.736120 -0.103153 -2.071384 5.703019 -0.952417 7.644728 -17.458465 -0.000190 -0.064385 0.176888 -9.789327 -2.651465 -32.138783 -0.390528 -0.455337 -0.518482 4.576465 -1.207160 16.189721 -0.715754 -0.495622 -4.005919 3.122773 -1.384206 11.869811 1.102533 -0.723451 4.688859 0.000000 0.000000 0.000000 4.451913 0.951783 -21.543215 12.047480 -19.875783 2.118418 22.077177 -0.474190 11.992734 0.000000 0.000000 0.000000 -7.125000 0.000000 0.000000 -3.566057 17.084533 -2.365566 0.000000 0.000000 0.000000 1.261060 6.131040 4.114770 -17.841549 -27.953732 -4.474670 -8.939902 5.162128 51.871642 0.000000 0.000000 0.000000 7.125000 0.000000 0.000000 64.314070 74.197359 -48.778129
16.949425 17.996883 20.573810 174.186579 -1.735821 -154.145422 0.000000 0.000000 0.000000 -24.866308 -16.908574 -18.916118 0.286887 3.444531 9.518971 0.055164 -5.854519 -5.519802 0.017764 -0.822705 -2.261333 0.000000 0.000000 0.000000 16.100663 9.388199 -19.709077 -0.101906 -2.058480 5.667401 -0.929512 7.647391 -17.250934 -0.005060 -0.374669 1.029547 -9.753643 -2.640781 -32.159019 -0.385876 -0.452343 -0.515283 4.563740 -1.203792 16.202692 -0.556705 -0.632066 -4.032785 3.005419 -1.600421 12.153841 1.023242 -0.835219 4.800781 0.000000 0.000000 0.000000 4.439224 0.931965 -21.478044 12.050747 -19.880672 2.119546 22.121187 -0.471394 12.254005 0.000000 0.000000 0.000000 -7.125000 0.000000 0.000000 -3.545991 16.801111 -2.374251 0.000000 0.000000 0.000000 1.282316 6.095222 4.037128 -17.815707 -27.920501 -4.462586 -8.588733 5.012415 52.127667 0.000000 0.000000 0.000000 7.125000 0.000000 0.000000 65.363551 74.157755 -49.671396
16.949015 17.996559 20.573716 174.249666 -1.761248 -154.182674 0.000000 0.000000 0.000000 -24.800325 -16.902392 -18.880301 0.287054 3.445291 9.521049 0.060263 -5.704748 -5.565042 0.031916 -1.150051 -3.161872 0.000000 0.000000 0.000000 16.182220 9.428346 -19.605956 -0.099216 -2.030862 5.591015 -0.910186 7.627408 -17.074034 -0.011055 -0.678090 1.863422 -9.701255 -2.635084 -32.129101 -0.364877 -0.466539 -0.507105 4.554331 -1.205352 16.202930 -0.508251 -0.686031 -4.025406 3.005438 -1.697304 12.309439 1.009717 -0.885386 4.858531 0.000000 0.000000 0.000000 4.400774 0.926316 -21.364395 12.072932 -19.913898 2.127087 22.088469 -0.399213 12.426264 0.000000 0.000000 0.000000 -7.125000 0.000000 0.000000 -3.575854 16.620182 -2.408409 0.000000 0.000000 0.000000 1.273490 6.064913 4.050924 -17.809597 -27.912668 -4.459752 -8.427192 4.897884 52.267733 0.000000 0.000000 0.000000 7.125000 0.000000 0.000000 65.920985 74.146519 -50.158142
